<?xml version='1.0' encoding='ascii'?>
<svg xmlns="http://www.w3.org/2000/svg" version="1.1" width="1920" height="1080">
    <g id="ViewLayer_LineSet" xmlns:inkscape="http://www.inkscape.org/namespaces/inkscape" inkscape:groupmode="lineset" inkscape:label="ViewLayer_LineSet">
        <g xmlns:inkscape="http://www.inkscape.org/namespaces/inkscape" inkscape:groupmode="layer" id="strokes" inkscape:label="strokes">
            <path fill="none" stroke-width="11.499999046325684" stroke-linecap="butt" stroke-opacity="1.0" stroke="rgb(0, 0, 0)" stroke-linejoin="round" d=" M 947.230, 439.305 956.552, 435.684 965.873, 432.063 975.194, 428.441 984.515, 424.820 993.837, 421.199 1003.158, 417.578 1012.479, 413.956 1021.801, 410.335 1031.122, 406.714 1040.443, 403.093 1049.764, 399.471 1059.086, 395.850 1068.407, 392.229 1077.728, 388.608 1087.050, 384.986 1096.371, 381.365 1105.692, 377.744 1115.014, 374.123 1124.335, 370.501 1133.656, 366.880 1142.977, 363.259 1152.299, 359.638 1161.620, 356.016 1170.941, 352.395 1180.263, 348.774 1189.584, 345.153 1198.905, 341.531 1208.226, 337.910 1217.548, 334.289 1226.869, 330.668 1236.190, 327.046 1245.512, 323.425 1254.833, 319.804 1264.154, 316.183 1273.476, 312.561 1282.797, 308.940 1292.118, 305.319 1301.439, 301.698 1310.761, 298.076 1320.082, 294.455 1329.403, 290.834 1338.725, 287.213 1348.046, 283.591 1357.367, 279.970 1366.689, 276.349 1376.010, 272.728 1385.331, 269.107 1394.008, 265.736 " />
            <path fill="none" stroke-width="11.499999046325684" stroke-linecap="butt" stroke-opacity="1.0" stroke="rgb(0, 0, 0)" stroke-linejoin="round" d=" M 1394.008, 265.736 1384.565, 262.445 1375.122, 259.154 1365.679, 255.863 1356.236, 252.572 1346.793, 249.281 1337.350, 245.990 1327.907, 242.699 1318.464, 239.408 1309.021, 236.117 1299.578, 232.826 1290.135, 229.535 1280.693, 226.244 1271.250, 222.953 1261.807, 219.662 1252.364, 216.371 1242.921, 213.081 1233.478, 209.790 1224.035, 206.499 1214.592, 203.208 1205.149, 199.917 1195.706, 196.626 1186.263, 193.335 1176.820, 190.044 1167.377, 186.753 1157.934, 183.462 1148.491, 180.171 1139.048, 176.880 1129.605, 173.589 1120.162, 170.298 1110.719, 167.007 1101.276, 163.716 1091.833, 160.426 1082.390, 157.135 1072.947, 153.844 1063.504, 150.553 1054.061, 147.262 1044.618, 143.971 1035.175, 140.680 1025.732, 137.389 1016.289, 134.098 1006.846, 130.807 997.403, 127.516 987.960, 124.225 983.710, 122.744 974.121, 125.581 964.532, 128.417 954.943, 131.254 945.353, 134.090 935.764, 136.927 926.175, 139.763 916.585, 142.600 906.996, 145.436 897.407, 148.273 887.818, 151.109 878.228, 153.946 868.639, 156.783 859.050, 159.619 849.461, 162.456 839.871, 165.292 830.282, 168.129 820.693, 170.965 811.104, 173.802 801.514, 176.638 791.925, 179.475 782.336, 182.312 772.747, 185.148 763.157, 187.985 753.568, 190.821 743.979, 193.658 734.389, 196.494 724.800, 199.331 715.211, 202.167 705.622, 205.004 696.032, 207.841 686.443, 210.677 676.854, 213.514 667.265, 216.350 657.675, 219.187 648.086, 222.023 638.497, 224.860 628.908, 227.696 619.318, 230.533 609.729, 233.369 600.140, 236.206 590.550, 239.043 580.961, 241.879 571.372, 244.716 561.783, 247.552 552.193, 250.389 547.431, 251.798 548.188, 261.769 548.945, 271.740 549.702, 281.711 550.460, 291.683 551.217, 301.654 551.974, 311.625 552.731, 321.597 553.489, 331.568 554.246, 341.539 555.003, 351.510 555.760, 361.482 556.518, 371.453 557.275, 381.424 558.032, 391.396 558.789, 401.367 559.547, 411.338 560.304, 421.310 561.061, 431.281 561.818, 441.252 562.576, 451.223 563.333, 461.195 564.090, 471.166 564.848, 481.137 565.605, 491.109 566.362, 501.080 567.119, 511.051 567.877, 521.022 568.634, 530.994 569.391, 540.965 570.148, 550.936 570.906, 560.907 571.663, 570.879 572.420, 580.850 573.177, 590.821 573.935, 600.793 574.692, 610.764 575.449, 620.735 576.206, 630.707 576.964, 640.678 577.721, 650.649 578.478, 660.620 579.235, 670.592 579.993, 680.563 580.750, 690.534 581.507, 700.505 582.264, 710.477 583.022, 720.448 583.779, 730.419 584.536, 740.391 585.294, 750.362 585.871, 757.969 594.160, 763.563 602.449, 769.157 610.738, 774.750 619.027, 780.344 627.316, 785.938 635.605, 791.532 643.894, 797.126 652.183, 802.720 660.472, 808.314 668.761, 813.908 677.050, 819.502 685.339, 825.096 693.628, 830.690 701.917, 836.284 710.207, 841.878 718.496, 847.472 726.785, 853.066 735.074, 858.659 743.363, 864.253 751.652, 869.847 759.941, 875.441 768.230, 881.035 776.519, 886.629 784.808, 892.223 793.097, 897.817 801.386, 903.411 809.675, 909.005 817.964, 914.599 826.253, 920.193 834.542, 925.787 842.831, 931.381 851.120, 936.975 859.409, 942.568 867.698, 948.162 875.987, 953.756 884.276, 959.350 892.565, 964.944 900.854, 970.538 909.143, 976.132 917.432, 981.726 925.721, 987.320 934.010, 992.914 942.299, 998.508 948.602, 1002.761 957.329, 997.878 966.056, 992.996 974.783, 988.113 983.509, 983.230 992.236, 978.347 1000.963, 973.464 1009.690, 968.581 1018.417, 963.698 1027.144, 958.816 1035.870, 953.933 1044.597, 949.050 1053.324, 944.167 1062.051, 939.284 1070.778, 934.401 1079.505, 929.518 1088.231, 924.636 1096.958, 919.753 1105.685, 914.870 1114.412, 909.987 1123.139, 905.104 1131.866, 900.221 1140.592, 895.338 1149.319, 890.455 1158.046, 885.573 1166.773, 880.690 1175.500, 875.807 1184.227, 870.924 1192.953, 866.041 1201.680, 861.158 1210.407, 856.275 1219.134, 851.393 1227.861, 846.510 1236.588, 841.627 1245.314, 836.744 1254.041, 831.861 1262.768, 826.978 1271.495, 822.095 1280.222, 817.212 1288.949, 812.330 1297.675, 807.447 1306.402, 802.564 1315.129, 797.681 1323.856, 792.798 1332.583, 787.915 1341.310, 783.032 1353.104, 776.433 1353.902, 766.465 1354.700, 756.497 1355.499, 746.529 1356.297, 736.561 1357.096, 726.593 1357.894, 716.625 1358.692, 706.657 1359.491, 696.689 1360.289, 686.721 1361.088, 676.753 1361.886, 666.785 1362.684, 656.816 1363.483, 646.848 1364.281, 636.880 1365.080, 626.912 1365.878, 616.944 1366.676, 606.976 1367.475, 597.008 1368.273, 587.040 1369.072, 577.072 1369.870, 567.104 1370.668, 557.136 1371.467, 547.168 1372.265, 537.200 1373.064, 527.231 1373.862, 517.263 1374.660, 507.295 1375.459, 497.327 1376.257, 487.359 1377.056, 477.391 1377.854, 467.423 1378.652, 457.455 1379.451, 447.487 1380.249, 437.519 1381.048, 427.551 1381.846, 417.583 1382.644, 407.615 1383.443, 397.646 1384.241, 387.678 1385.040, 377.710 1385.838, 367.742 1386.636, 357.774 1387.435, 347.806 1388.233, 337.838 1389.031, 327.870 1389.830, 317.902 1390.628, 307.934 1391.427, 297.966 1392.225, 287.998 1393.024, 278.030 1394.008, 265.736 " />
            <path fill="none" stroke-width="11.499999046325684" stroke-linecap="butt" stroke-opacity="1.0" stroke="rgb(0, 0, 0)" stroke-linejoin="round" d=" M 547.431, 251.798 556.484, 256.044 565.538, 260.290 574.592, 264.536 583.645, 268.783 592.699, 273.029 601.753, 277.275 610.807, 281.521 619.860, 285.767 628.914, 290.014 637.968, 294.260 647.021, 298.506 656.075, 302.752 665.129, 306.999 674.182, 311.245 683.236, 315.491 692.290, 319.737 701.344, 323.983 710.397, 328.230 719.451, 332.476 728.505, 336.722 737.558, 340.968 746.612, 345.215 755.666, 349.461 764.720, 353.707 773.773, 357.953 782.827, 362.199 791.881, 366.446 800.934, 370.692 809.988, 374.938 819.042, 379.184 828.096, 383.431 837.149, 387.677 846.203, 391.923 855.257, 396.169 864.310, 400.415 873.364, 404.662 882.418, 408.908 891.471, 413.154 900.525, 417.400 909.579, 421.646 918.633, 425.893 927.686, 430.139 936.740, 434.385 947.230, 439.305 947.255, 449.305 947.279, 459.305 947.303, 469.305 947.328, 479.305 947.352, 489.305 947.376, 499.305 947.401, 509.305 947.425, 519.305 947.449, 529.305 947.474, 539.305 947.498, 549.305 947.522, 559.305 947.547, 569.305 947.571, 579.305 947.595, 589.305 947.620, 599.305 947.644, 609.305 947.668, 619.305 947.693, 629.305 947.717, 639.305 947.742, 649.305 947.766, 659.304 947.790, 669.304 947.815, 679.304 947.839, 689.304 947.863, 699.304 947.888, 709.304 947.912, 719.304 947.936, 729.304 947.961, 739.304 947.985, 749.304 948.009, 759.304 948.034, 769.304 948.058, 779.304 948.082, 789.304 948.107, 799.304 948.131, 809.304 948.155, 819.304 948.180, 829.304 948.204, 839.304 948.228, 849.304 948.253, 859.304 948.277, 869.304 948.301, 879.304 948.326, 889.304 948.350, 899.304 948.375, 909.304 948.399, 919.304 948.423, 929.304 948.448, 939.304 948.472, 949.304 948.496, 959.304 948.521, 969.304 948.545, 979.304 948.569, 989.304 948.602, 1002.761 " />
        </g>
    </g>
</svg>
